<?xml version="1.0" encoding="utf-8"?>
<!-- Generator: Adobe Illustrator 16.0.0, SVG Export Plug-In . SVG Version: 6.00 Build 0)  -->
<!DOCTYPE svg PUBLIC "-//W3C//DTD SVG 1.1//EN" "http://www.w3.org/Graphics/SVG/1.1/DTD/svg11.dtd">
<svg version="1.1" id="Layer_1" xmlns="http://www.w3.org/2000/svg" xmlns:xlink="http://www.w3.org/1999/xlink" x="0px" y="0px"
	 width="1000px" height="1000px" viewBox="0 0 1000 1000" enable-background="new 0 0 1000 1000" xml:space="preserve">
<circle fill-rule="evenodd" clip-rule="evenodd" fill="#FFFFFF" stroke="#000000" stroke-width="30" stroke-miterlimit="10" cx="504" cy="502" r="436.483"/>
<g>
	<g>
		<path fill-rule="evenodd" clip-rule="evenodd" stroke="#000000" stroke-width="6" stroke-miterlimit="10" d="M508.263,882.947
			c-13.24,5.428-35.235,0.887-42.28-10.571c-10-16.258-21.548-20.732-39.78-15.267c-8.618,2.58-18.882-0.326-28.294-3.264
			c14.332-3.213,28.664-6.428,44.48-9.973c-5.252-7.259-9.043-12.488-12.827-17.721c0.685-0.748,1.371-1.495,2.059-2.245
			c7.33,3.926,15.706,12.123,21.708,10.646c6.75-1.661,11.359-12.038,16.9-18.626c-0.567-1.329-1.134-2.66-1.705-3.992
			c-7.267,0.603-14.639,0.637-21.771,1.962c-7.405,1.377-14.576,4.003-24.702,6.898c9.417-14.965,35.316-5.787,32.372-29.631
			c-5.427-0.687-11.388-1.439-17.35-2.191c-0.115-0.956-0.23-1.913-0.346-2.873c8.617-3.343,19.625-4.5,25.222-10.612
			c6.414-7.004,8.032-18.406,11.725-27.901c8.681,7.562,8.681,7.562,0.049,32.665c9.121,0.625,18.11,1.24,27.099,1.859
			c0.136,2.204,0.27,4.414,0.405,6.623c-4.646,0.892-9.668,3.378-13.87,2.385c-13.275-3.138-22.84-0.26-27.833,13.221
			c0.743,0.511,1.425,1.287,2.26,1.534c7.111,2.097,14.251,4.101,21.382,6.131c-3.543,6.184-6.653,12.671-10.751,18.462
			c-3.606,5.092-8.318,9.4-14.231,15.918C474.888,858.58,490.861,870.242,508.263,882.947z"/>
		<path fill-rule="evenodd" clip-rule="evenodd" stroke="#000000" stroke-width="6" stroke-miterlimit="10" d="M783.031,753.349
			c-8.574-0.478-17.144-0.956-25.024-1.395c-7.178,14.586-14.263,28.986-21.347,43.387c-1.107-0.507-2.216-1.018-3.321-1.524
			c3.165-13.989,6.329-27.977,10.129-44.777c-17.233,5.845-22.614-3.014-26.006-17.829c-11.72,18.657-21.847,34.775-31.977,50.896
			c-1.831-1.021-3.662-2.047-5.491-3.072c5.082-10.536,9.57-21.415,15.369-31.537c17.176-29.977,17.371-29.852-3.893-57.432
			c-1.121-1.454-1.941-3.141-3.036-4.939c15.193-3.407,19.026-0.646,30.699,21.382c8.472-7.741,17.014-15.547,28.468-26.012
			c-4.452,34.867-2.017,62.226,39.311,67.635C785.621,749.869,784.325,751.609,783.031,753.349z M733.848,709.825
			c-11.209,7.796-12.562,16.162-7.404,25.237c1.705,2.998,5.954,4.551,9.041,6.764c1.768-3.485,5.378-7.229,4.934-10.406
			C739.441,724.454,736.412,717.778,733.848,709.825z"/>
		<path fill-rule="evenodd" clip-rule="evenodd" stroke="#000000" stroke-width="6" stroke-miterlimit="10" d="M395.017,801.835
			c2.636,0.312,5.472,0.648,8.31,0.984c-15.054,7.348-14.668,21.466-17.771,34.239c-2.676,11.017-7.294,21.563-11.051,32.313
			c-2.465,0.004-4.93,0.006-7.396,0.01c-3.11-10.763-6.221-21.526-9.332-32.289c1.187-0.56,2.373-1.117,3.56-1.677
			c2.753,3.246,5.509,6.492,10.224,12.05c3.476-10.938,6.315-19.884,10.282-32.377c-13.329,8.144-23.32,17.044-36.255,6.089
			c10.553-14.748,39.694-3.027,41.244-29.048c-9.132-2.043-17.961-4.012-28.012-6.261c2.445-3.31,3.059-4.649,3.445-4.589
			c24.616,3.978,36.972-7.562,40.555-31.185c0.584-3.845,3.886-7.279,5.93-10.907c1.805,0.512,3.614,1.022,5.419,1.533
			c-2.614,11.972-5.23,23.944-7.983,36.525c6.215,0.352,12.718,0.721,20.028,1.133C419.418,792.681,393.998,778.435,395.017,801.835
			z"/>
		<path fill-rule="evenodd" clip-rule="evenodd" stroke="#000000" stroke-width="6" stroke-miterlimit="10" d="M276.006,673.132
			c-19.435,45.862-14.597,70.407,19.158,92.248c3.811-5.523,7.661-11.102,12.733-18.445c0.593,12.767,1.789,23.062,0.971,33.189
			c-0.173,2.17-8.175,6.043-11.665,5.233c-25.783-5.997-52.406-55.151-42.861-79.914c4.636-12.035,12.294-22.904,18.584-34.302
			C273.953,671.806,274.981,672.467,276.006,673.132z"/>
		<path fill-rule="evenodd" clip-rule="evenodd" stroke="#000000" stroke-width="6" stroke-miterlimit="10" d="M759.332,686.047
			c23.239,1.588,25.124-19.731,37.025-29.493c3.607-2.957,8.327-8.008,11.382-7.28c3.552,0.853,7.142,6.633,8.361,10.938
			c1.823,6.438,1.594,13.46,2.251,20.351c4.738,0.81,8.95,1.527,17.523,2.993c-9.357,7.381-15.658,12.131-21.692,17.196
			c-3.327,2.797-7.571,5.594-9.025,9.317c-4.048,10.348-9.15,6.146-14.407,1.901C780.918,704.029,771.245,695.896,759.332,686.047z
			 M800.25,660.768c-7.042,8.94-13.455,17.073-20.35,25.823c6.263,6.572,11.557,12.128,16.82,17.654
			C812.062,690.565,812.392,686.843,800.25,660.768z"/>
		<path fill-rule="evenodd" clip-rule="evenodd" stroke="#000000" stroke-width="6" stroke-miterlimit="10" d="M552.42,811.042
			c34.061-20.06,71.271-31.318,110.675-35.465c4.643-0.486,9.949,5.334,14.949,8.231c-0.397,2.138-0.792,4.276-1.187,6.414
			c-11.455,0-22.941-0.554-34.348,0.187c-8.143,0.527-16.556,1.737-24.173,4.498c-16.062,5.821-31.546,13.228-47.562,19.191
			c-5.198,1.934-11.315,1.396-17.012,1.993C553.314,814.405,552.87,812.725,552.42,811.042z"/>
		<path fill-rule="evenodd" clip-rule="evenodd" stroke="#000000" stroke-width="6" stroke-miterlimit="10" d="M237.376,678.95
			c-13.068,9.349-26.131,18.697-41.658,29.807c0.896-17.685,1.179-16.863,12.082-20.617c9.357-3.221,17.972-8.6,26.917-13.024
			C235.604,676.393,236.492,677.671,237.376,678.95z"/>
	</g>
</g>
<g>
	<circle fill="#D33E52" stroke="#D33E52" stroke-width="40" stroke-miterlimit="10" cx="501.051" cy="397.918" r="287.867"/>
	<path fill="#FFFFFF" d="M501.051,116.283c155.545,0,281.639,126.091,281.639,281.636S656.596,679.557,501.051,679.557
		c-77.774,0-140.819-63.048-140.819-140.819s63.045-140.818,140.819-140.818V116.283z"/>
	<circle fill="#D33E52" cx="501.051" cy="257.101" r="140.818"/>
	<circle fill="#D33E52" cx="501.051" cy="538.737" r="37.385"/>
	<circle fill="#FFFFFF" cx="501.051" cy="257.098" r="37.386"/>
</g>
</svg>
