<?xml version="1.0" encoding="utf-8"?>
<!-- Generator: Adobe Illustrator 16.0.0, SVG Export Plug-In . SVG Version: 6.00 Build 0)  -->
<!DOCTYPE svg PUBLIC "-//W3C//DTD SVG 1.1//EN" "http://www.w3.org/Graphics/SVG/1.1/DTD/svg11.dtd">
<svg version="1.1" id="Layer_1" xmlns="http://www.w3.org/2000/svg" xmlns:xlink="http://www.w3.org/1999/xlink" x="0px" y="0px"
	 width="100px" height="100px" viewBox="0 0 100 100" enable-background="new 0 0 100 100" xml:space="preserve">
<g id="_x33_MTsab.tif">
	<rect x="-7.25" y="3.152" fill="none" width="111.098" height="111.098"/>
	<g enable-background="new    ">
		<path fill="#333333" d="M62.709,67.21c-0.262,1.31-0.372,2.468-0.327,3.471c0.043,1.006,0.305,1.813,0.786,2.424
			c0.479,0.612,1.244,0.917,2.292,0.917c2.883,0,5.677-1.003,8.385-3.013c2.706-2.008,5.063-4.585,7.073-7.729
			c2.009-3.144,3.623-6.636,4.848-10.479c1.222-3.842,1.834-7.598,1.834-11.266c0-5.414-0.982-10.261-2.947-14.541
			c-1.966-4.278-4.651-7.88-8.057-10.808c-3.406-2.925-7.358-5.174-11.855-6.747c-4.499-1.572-9.281-2.358-14.345-2.358
			c-6.114,0-11.704,1.136-16.768,3.406c-5.066,2.272-9.432,5.351-13.1,9.236c-3.668,3.887-6.507,8.472-8.515,13.755
			C10.002,38.762,9,44.416,9,50.441c0,5.94,1.048,11.485,3.144,16.637c2.096,5.154,4.999,9.629,8.711,13.428
			c3.711,3.799,8.122,6.792,13.231,8.974c5.109,2.185,10.631,3.275,16.571,3.275c3.23,0,6.439-0.414,9.629-1.245
			c3.187-0.829,6.266-1.985,9.235-3.472c2.968-1.483,5.719-3.295,8.253-5.436c2.532-2.14,4.759-4.562,6.681-7.271h6.682
			c-2.011,3.582-4.477,6.812-7.401,9.693c-2.928,2.882-6.157,5.328-9.694,7.336c-3.537,2.011-7.293,3.537-11.266,4.585
			c-3.976,1.048-8.014,1.572-12.118,1.572c-7.074,0-13.581-1.244-19.519-3.733c-5.94-2.489-11.069-5.938-15.392-10.349
			c-4.323-4.409-7.686-9.606-10.087-15.59c-2.403-5.98-3.602-12.422-3.602-19.322c0-6.812,1.244-13.166,3.733-19.061
			c2.489-5.895,5.916-11.004,10.283-15.327c4.366-4.323,9.475-7.729,15.327-10.218c5.85-2.489,12.095-3.733,18.733-3.733
			c6.288,0,12.138,0.982,17.554,2.948c5.414,1.965,10.107,4.761,14.082,8.384c3.974,3.625,7.095,7.925,9.367,12.903
			c2.27,4.978,3.405,10.48,3.405,16.506c0,5.24-0.896,10.175-2.686,14.803c-1.791,4.63-4.126,8.669-7.008,12.117
			c-2.882,3.451-6.137,6.157-9.76,8.122c-3.625,1.965-7.271,2.948-10.938,2.948c-2.272,0-4.237-0.741-5.895-2.228
			c-1.66-1.483-2.62-3.668-2.883-6.55h-0.262c-2.01,2.096-4.454,4.061-7.336,5.895s-5.983,2.751-9.301,2.751
			c-2.708,0-5.132-0.501-7.271-1.506c-2.141-1.003-3.953-2.379-5.437-4.127c-1.486-1.746-2.62-3.754-3.406-6.025
			c-0.786-2.271-1.179-4.717-1.179-7.336c0-4.54,0.741-9.06,2.227-13.559c1.484-4.498,3.58-8.558,6.288-12.184
			c2.706-3.623,5.981-6.55,9.825-8.777c3.842-2.227,8.077-3.34,12.707-3.34c2.882,0,5.545,0.852,7.991,2.554
			c2.443,1.703,4.408,4.52,5.895,8.45l3.275-8.515h6.942L63.758,63.148C63.319,64.547,62.972,65.899,62.709,67.21z M42.601,32.888
			c-2.751,2.01-5.109,4.52-7.074,7.532c-1.965,3.013-3.472,6.288-4.52,9.825s-1.572,6.834-1.572,9.891
			c0,3.93,1.025,7.031,3.078,9.301c2.051,2.272,4.651,3.406,7.795,3.406c3.056,0,5.895-1.068,8.515-3.21
			c2.62-2.139,4.913-4.759,6.878-7.859c1.965-3.1,3.515-6.439,4.65-10.021c1.134-3.58,1.703-6.812,1.703-9.694
			c0-1.572-0.308-3.079-0.917-4.52c-0.612-1.441-1.398-2.729-2.358-3.865c-0.962-1.134-2.053-2.051-3.274-2.751
			c-1.225-0.698-2.489-1.048-3.8-1.048C48.386,29.875,45.352,30.879,42.601,32.888z"/>
	</g>
</g>
</svg>
