<?xml version="1.0" encoding="utf-8"?>
<!-- Generator: Adobe Illustrator 16.0.0, SVG Export Plug-In . SVG Version: 6.00 Build 0)  -->
<!DOCTYPE svg PUBLIC "-//W3C//DTD SVG 1.1//EN" "http://www.w3.org/Graphics/SVG/1.1/DTD/svg11.dtd">
<svg version="1.1" id="Layer_1" xmlns="http://www.w3.org/2000/svg" xmlns:xlink="http://www.w3.org/1999/xlink" x="0px" y="0px"
	 width="100px" height="100px" viewBox="0 0 100 100" enable-background="new 0 0 100 100" xml:space="preserve">
<g id="Hbmu0l.tif">
	<g>
		<path fill="#FFFFFF" stroke="#333333" stroke-width="7" stroke-miterlimit="10" d="M48.955,5.221c0.76,0,1.519,0,2.278,0
			c0.187,0.031,0.37,0.076,0.557,0.09c1.206,0.094,2.415,0.153,3.617,0.278c3.199,0.334,6.333,1.018,9.346,2.132
			c14.398,5.326,23.904,15.327,28.429,30.008c1.061,3.438,1.58,6.983,1.691,10.584c0.007,0.215,0.062,0.428,0.095,0.642
			c0,0.76,0,1.519,0,2.278c-0.033,0.229-0.071,0.458-0.096,0.688c-0.215,2.041-0.309,4.105-0.665,6.123
			c-1.209,6.848-3.896,13.084-8.048,18.668c-5.229,7.033-11.938,12.133-20.118,15.286c-0.14,0.054-0.284,0.095-0.452,0.151
			c0-10.011,0-19.948,0-29.933c0.204,0,0.376,0,0.548,0c2.673,0,5.347-0.001,8.02,0c0.236,0,0.466,0.037,0.501-0.317
			c0.167-1.679,0.348-3.356,0.526-5.034c0.17-1.604,0.344-3.209,0.513-4.815c0.04-0.384,0.061-0.769,0.096-1.202
			c-0.225,0-0.396,0-0.568,0c-3.067,0-6.134-0.005-9.202,0.007c-0.36,0.001-0.479-0.097-0.472-0.467
			c0.041-2.176,0.011-4.354,0.1-6.527c0.067-1.625,0.6-2.552,2.383-2.917c0.693-0.143,1.418-0.179,2.13-0.191
			c1.679-0.026,3.358-0.008,5.039-0.008c0.155,0,0.312,0,0.482,0c0-3.812,0-7.57,0-11.364c-0.191,0-0.35,0-0.508,0
			c-2.995,0-5.99,0.005-8.983-0.001c-1.771-0.004-3.516,0.184-5.229,0.624c-4.138,1.061-6.93,3.556-8.19,7.691
			c-0.645,2.112-0.822,4.281-0.85,6.469c-0.024,2.044-0.004,4.09-0.006,6.135c0,0.169-0.015,0.339-0.025,0.558
			c-2.255,0-4.467,0-6.699,0c-0.014,0.134-0.029,0.218-0.029,0.302c-0.001,3.565,0.002,7.129-0.008,10.693
			c-0.001,0.341,0.159,0.368,0.429,0.368c1.943-0.007,3.886-0.004,5.828-0.003c0.155,0,0.31,0,0.478,0c0,10.908,0,21.754,0,32.598
			c-0.237,0.054-0.446,0.104-0.656,0.152c-0.759,0-1.519,0-2.278,0c-0.17-0.032-0.34-0.074-0.512-0.092
			c-1.84-0.183-3.691-0.288-5.519-0.554c-4.281-0.621-8.359-1.938-12.251-3.818c-6.103-2.948-11.303-7.051-15.528-12.348
			c-6.119-7.673-9.412-16.421-9.829-26.237c-0.009-0.199-0.062-0.398-0.095-0.598c0-0.818,0-1.636,0-2.454
			c0.034-0.229,0.09-0.457,0.097-0.686c0.086-2.792,0.467-5.546,1.107-8.259c1.919-8.125,5.752-15.223,11.626-21.159
			c8.323-8.411,18.422-12.905,30.259-13.45C48.526,5.304,48.741,5.253,48.955,5.221z"/>
	</g>
</g>
</svg>
